<svg xmlns="http://www.w3.org/2000/svg" style="display:none">

  <!-- ===================== ICÔNES MÉTÉO ===================== -->

  <symbol id="icon-sun" viewBox="0 0 24 24" fill="none" stroke="currentColor" stroke-width="1.6" stroke-linecap="round">
    <circle cx="12" cy="12" r="4.6" fill="currentColor" stroke="none"/>
    <g stroke-linecap="round">
      <line x1="12" y1="1.5" x2="12" y2="4.2"/>
      <line x1="12" y1="19.8" x2="12" y2="22.5"/>
      <line x1="1.5" y1="12" x2="4.2" y2="12"/>
      <line x1="19.8" y1="12" x2="22.5" y2="12"/>
      <line x1="4.5" y1="4.5" x2="6.4" y2="6.4"/>
      <line x1="17.6" y1="17.6" x2="19.5" y2="19.5"/>
      <line x1="4.5" y1="19.5" x2="6.4" y2="17.6"/>
      <line x1="17.6" y1="6.4" x2="19.5" y2="4.5"/>
    </g>
  </symbol>

  <symbol id="icon-moon" viewBox="0 0 24 24" fill="currentColor" stroke="none">
    <path d="M20 14.5A8.5 8.5 0 0 1 9.5 4a8.5 8.5 0 1 0 10.5 10.5Z"/>
  </symbol>

  <symbol id="icon-cloud" viewBox="0 0 24 24" fill="none" stroke="currentColor" stroke-width="1.6" stroke-linecap="round" stroke-linejoin="round">
    <path d="M7 18.5a4.3 4.3 0 0 1-.7-8.55A5.3 5.3 0 0 1 16.7 8.2 4 4 0 0 1 17 16.5"/>
    <path d="M7 18.5h10"/>
  </symbol>

  <symbol id="icon-cloud-sun" viewBox="0 0 24 24" fill="none" stroke="currentColor" stroke-width="1.6" stroke-linecap="round" stroke-linejoin="round">
    <circle cx="7.2" cy="7" r="2.9" fill="currentColor" stroke="none"/>
    <g stroke-width="1.4">
      <line x1="7.2" y1="1.2" x2="7.2" y2="2.6"/>
      <line x1="2.4" y1="7" x2="1" y2="7"/>
      <line x1="3.4" y1="3.1" x2="4.4" y2="4.1"/>
    </g>
    <path d="M9 19h7.5a3.9 3.9 0 0 0 .5-7.77 5 5 0 0 0-9.4-1.9"/>
    <path d="M9 19a3.4 3.4 0 0 1-.4-6.78"/>
  </symbol>

  <symbol id="icon-cloud-moon" viewBox="0 0 24 24" fill="none" stroke="currentColor" stroke-width="1.6" stroke-linecap="round" stroke-linejoin="round">
    <path d="M8.6 8.4A3 3 0 1 0 5.2 4.1a3.6 3.6 0 0 0 3.4 4.3Z" fill="currentColor" stroke="none"/>
    <path d="M9 19h7.5a3.9 3.9 0 0 0 .5-7.77 5 5 0 0 0-9.4-1.9"/>
    <path d="M9 19a3.4 3.4 0 0 1-.4-6.78"/>
  </symbol>

  <symbol id="icon-cloud-fog" viewBox="0 0 24 24" fill="none" stroke="currentColor" stroke-width="1.6" stroke-linecap="round" stroke-linejoin="round">
    <path d="M6.5 14.8a4 4 0 0 1-.6-7.95A5 5 0 0 1 15.5 6.9 3.8 3.8 0 0 1 16 14.5"/>
    <line x1="4" y1="18" x2="18" y2="18"/>
    <line x1="7" y1="21.3" x2="17" y2="21.3"/>
  </symbol>

  <symbol id="icon-cloud-drizzle" viewBox="0 0 24 24" fill="none" stroke="currentColor" stroke-width="1.6" stroke-linecap="round" stroke-linejoin="round">
    <path d="M6.5 13a4 4 0 0 1-.6-7.95A5 5 0 0 1 15.5 5 3.8 3.8 0 0 1 16 12.6"/>
    <line x1="8" y1="17" x2="8" y2="19.3"/>
    <line x1="12" y1="17" x2="12" y2="19.3"/>
    <line x1="16" y1="17" x2="16" y2="19.3"/>
  </symbol>

  <symbol id="icon-cloud-rain" viewBox="0 0 24 24" fill="none" stroke="currentColor" stroke-width="1.6" stroke-linecap="round" stroke-linejoin="round">
    <path d="M6.5 12.6a4 4 0 0 1-.6-7.95A5 5 0 0 1 15.5 4.6 3.8 3.8 0 0 1 16 12.2"/>
    <line x1="8" y1="16.6" x2="6.8" y2="20.4"/>
    <line x1="12.4" y1="16.6" x2="11.2" y2="20.4"/>
    <line x1="16.8" y1="16.6" x2="15.6" y2="20.4"/>
  </symbol>

  <symbol id="icon-cloud-snow" viewBox="0 0 24 24" fill="none" stroke="currentColor" stroke-width="1.6" stroke-linecap="round" stroke-linejoin="round">
    <path d="M6.5 12.6a4 4 0 0 1-.6-7.95A5 5 0 0 1 15.5 4.6 3.8 3.8 0 0 1 16 12.2"/>
    <g stroke-width="1.5">
      <circle cx="7.5" cy="18" r=".2"/>
      <circle cx="12" cy="19.4" r=".2"/>
      <circle cx="16.2" cy="18" r=".2"/>
    </g>
    <path d="M7.5 16.6v3.4M6 18.3h3M11.9 18.1v3.4M10.4 19.8h3M16.1 16.6v3.4M14.6 18.3h3"/>
  </symbol>

  <symbol id="icon-cloud-storm" viewBox="0 0 24 24" fill="none" stroke="currentColor" stroke-width="1.6" stroke-linecap="round" stroke-linejoin="round">
    <path d="M6.5 12.2a4 4 0 0 1-.6-7.95A5 5 0 0 1 15.5 4.2 3.8 3.8 0 0 1 16 11.8"/>
    <path d="M12.3 13.5 9.6 18h3l-1.7 4.5" stroke-width="1.7"/>
  </symbol>

  <symbol id="icon-wind" viewBox="0 0 24 24" fill="none" stroke="currentColor" stroke-width="1.6" stroke-linecap="round" stroke-linejoin="round">
    <path d="M3 8h10.5a2.75 2.75 0 1 0-2.6-3.7"/>
    <path d="M3 13h14.5a2.75 2.75 0 1 1-2.6 3.7"/>
    <path d="M3 18h7.5a2.25 2.25 0 1 1-2.1 3"/>
  </symbol>

  <!-- ===================== ICÔNES D'INTERFACE ===================== -->

  <symbol id="icon-search" viewBox="0 0 24 24" fill="none" stroke="currentColor" stroke-width="1.8" stroke-linecap="round">
    <circle cx="10.5" cy="10.5" r="6.5"/>
    <line x1="15.3" y1="15.3" x2="21" y2="21"/>
  </symbol>

  <symbol id="icon-pin" viewBox="0 0 24 24" fill="none" stroke="currentColor" stroke-width="1.8" stroke-linecap="round" stroke-linejoin="round">
    <path d="M12 21.5s7-6.4 7-12A7 7 0 0 0 5 9.5c0 5.6 7 12 7 12Z"/>
    <circle cx="12" cy="9.5" r="2.4"/>
  </symbol>

  <symbol id="icon-droplet" viewBox="0 0 24 24" fill="none" stroke="currentColor" stroke-width="1.8" stroke-linecap="round" stroke-linejoin="round">
    <path d="M12 2.5s6.5 7.2 6.5 11.8a6.5 6.5 0 1 1-13 0C5.5 9.7 12 2.5 12 2.5Z"/>
  </symbol>

  <symbol id="icon-gauge" viewBox="0 0 24 24" fill="none" stroke="currentColor" stroke-width="1.8" stroke-linecap="round" stroke-linejoin="round">
    <path d="M3.5 15.5a8.5 8.5 0 1 1 17 0"/>
    <line x1="12" y1="15.5" x2="15.5" y2="10.8"/>
    <line x1="3.5" y1="19" x2="20.5" y2="19"/>
  </symbol>

  <symbol id="icon-eye" viewBox="0 0 24 24" fill="none" stroke="currentColor" stroke-width="1.8" stroke-linecap="round" stroke-linejoin="round">
    <path d="M2 12s3.6-6.5 10-6.5S22 12 22 12s-3.6 6.5-10 6.5S2 12 2 12Z"/>
    <circle cx="12" cy="12" r="2.6"/>
  </symbol>

  <symbol id="icon-uv" viewBox="0 0 24 24" fill="none" stroke="currentColor" stroke-width="1.8" stroke-linecap="round">
    <circle cx="12" cy="13" r="4.3"/>
    <line x1="12" y1="3.5" x2="12" y2="5.6"/>
    <line x1="4.8" y1="6.3" x2="6.3" y2="7.8"/>
    <line x1="19.2" y1="6.3" x2="17.7" y2="7.8"/>
    <line x1="2.7" y1="13" x2="4.8" y2="13"/>
    <line x1="19.2" y1="13" x2="21.3" y2="13"/>
  </symbol>

  <symbol id="icon-sunrise" viewBox="0 0 24 24" fill="none" stroke="currentColor" stroke-width="1.8" stroke-linecap="round" stroke-linejoin="round">
    <path d="M4 17.5h16"/>
    <path d="M6.5 17.5a5.5 5.5 0 0 1 11 0"/>
    <line x1="12" y1="5" x2="12" y2="8.5"/>
    <line x1="5" y1="10.5" x2="7" y2="12"/>
    <line x1="19" y1="10.5" x2="17" y2="12"/>
    <line x1="2" y1="21" x2="22" y2="21"/>
  </symbol>

  <symbol id="icon-sunset" viewBox="0 0 24 24" fill="none" stroke="currentColor" stroke-width="1.8" stroke-linecap="round" stroke-linejoin="round">
    <path d="M4 17.5h16"/>
    <path d="M6.5 17.5a5.5 5.5 0 0 1 11 0"/>
    <line x1="12" y1="8.5" x2="12" y2="5"/>
    <line x1="7" y1="12" x2="5" y2="10.5"/>
    <line x1="17" y1="12" x2="19" y2="10.5"/>
    <line x1="2" y1="21" x2="22" y2="21"/>
  </symbol>

  <symbol id="icon-menu" viewBox="0 0 24 24" fill="none" stroke="currentColor" stroke-width="1.8" stroke-linecap="round">
    <line x1="3.5" y1="6.5" x2="20.5" y2="6.5"/>
    <line x1="3.5" y1="12" x2="20.5" y2="12"/>
    <line x1="3.5" y1="17.5" x2="20.5" y2="17.5"/>
  </symbol>

  <symbol id="icon-close" viewBox="0 0 24 24" fill="none" stroke="currentColor" stroke-width="1.8" stroke-linecap="round">
    <line x1="5" y1="5" x2="19" y2="19"/>
    <line x1="19" y1="5" x2="5" y2="19"/>
  </symbol>

  <symbol id="icon-chevron" viewBox="0 0 24 24" fill="none" stroke="currentColor" stroke-width="1.8" stroke-linecap="round" stroke-linejoin="round">
    <polyline points="6 9 12 15 18 9"/>
  </symbol>

  <symbol id="icon-mail" viewBox="0 0 24 24" fill="none" stroke="currentColor" stroke-width="1.8" stroke-linecap="round" stroke-linejoin="round">
    <rect x="3" y="5.5" width="18" height="13" rx="2"/>
    <path d="M4 7l8 6 8-6"/>
  </symbol>

  <symbol id="icon-shield" viewBox="0 0 24 24" fill="none" stroke="currentColor" stroke-width="1.8" stroke-linecap="round" stroke-linejoin="round">
    <path d="M12 3l7.5 3v5.2c0 5-3.3 8-7.5 9.8-4.2-1.8-7.5-4.8-7.5-9.8V6L12 3Z"/>
    <path d="M9 12.2l2.2 2.2L15.5 10"/>
  </symbol>

  <symbol id="icon-info" viewBox="0 0 24 24" fill="none" stroke="currentColor" stroke-width="1.8" stroke-linecap="round" stroke-linejoin="round">
    <circle cx="12" cy="12" r="9"/>
    <line x1="12" y1="11" x2="12" y2="16.5"/>
    <circle cx="12" cy="7.6" r=".3" fill="currentColor"/>
  </symbol>

  <symbol id="icon-thermo" viewBox="0 0 24 24" fill="none" stroke="currentColor" stroke-width="1.8" stroke-linecap="round" stroke-linejoin="round">
    <path d="M12 14.5V4.8a2.3 2.3 0 0 0-4.6 0v9.7a4 4 0 1 0 4.6 0Z"/>
  </symbol>

  <symbol id="icon-lungs" viewBox="0 0 24 24" fill="none" stroke="currentColor" stroke-width="1.8" stroke-linecap="round" stroke-linejoin="round">
    <path d="M12 3v8"/>
    <path d="M12 11c-1 0-1.8.6-2.4 1.6l-1.4 3.5c-.7 1.9.6 3.9 2.6 3.9 1.5 0 2.7-1.2 2.7-2.7v-3.7"/>
    <path d="M12 11c1 0 1.8.6 2.4 1.6l1.4 3.5c.7 1.9-.6 3.9-2.6 3.9-1.5 0-2.7-1.2-2.7-2.7v-3.7"/>
    <path d="M9 6.5 7 5M15 6.5l2-1.5"/>
  </symbol>

  <symbol id="icon-arrow-up" viewBox="0 0 24 24" fill="none" stroke="currentColor" stroke-width="2" stroke-linecap="round" stroke-linejoin="round">
    <line x1="12" y1="19" x2="12" y2="5"/>
    <polyline points="6 11 12 5 18 11"/>
  </symbol>

  <symbol id="icon-compass" viewBox="0 0 24 24" fill="none" stroke="currentColor" stroke-width="1.6" stroke-linecap="round" stroke-linejoin="round">
    <circle cx="12" cy="12" r="9.3"/>
    <polygon points="14.5 9.5 12 12 9.5 14.5 12 12" />
  </symbol>

</svg>
